PathFileType   4   (X/Y/Z)
DataRate	CameraRate	NumFrames	NumMarkers	Units	OrigDataRate	OrigDataStartFrame	OrigNumFrames
120.0	120.0	7	37	mm	120.0	39	155
Frame#	Time	midhip	hip_r	hip_l	knee_r	knee_l	ankle_r	ankle_l	midasis	asis_r	asis_l	psis_r	psis_l	epicondLat_r	epicondLat_l	epicondMed_r	epicondMed_l	malleolusLat_r	malleolusLat_l	malleolusMedv_r	malleolusMedv_l	neck	subclavicle_r	subclavicle_l	sternalnotch	xyphoidprocess	thighwand_r	thighwand_l	upperleg1_r	upperleg1_l	upperleg2_r	upperleg2_l	shankwand_r	shankwand_l	lowerleg1_r	lowerleg1_l	toe_r	toe_l
 	 	X1	Y1	Z1	X2	Y2	Z2	X3	Y3	Z3	X4	Y4	Z4	X5	Y5	Z5	X6	Y6	Z6	X7	Y7	Z7	X8	Y8	Z8	X9	Y9	Z9	X10	Y10	Z10	X11	Y11	Z11	X12	Y12	Z12	X13	Y13	Z13	X14	Y14	Z14	X15	Y15	Z15	X16	Y16	Z16	X17	Y17	Z17	X18	Y18	Z18	X19	Y19	Z19	X20	Y20	Z20	X21	Y21	Z21	X22	Y22	Z22	X23	Y23	Z23	X24	Y24	Z24	X25	Y25	Z25	X26	Y26	Z26	X27	Y27	Z27	X28	Y28	Z28	X29	Y29	Z29	X30	Y30	Z30	X31	Y31	Z31	X32	Y32	Z32	X33	Y33	Z33	X34	Y34	Z34	X35	Y35	Z35	X36	Y36	Z36	X37	Y37	Z37

	39	0.55833	893.983	845.810	-181.070	892.896	825.951	-118.170	883.597	824.385	-235.263	865.877	455.299	-148.042	1040.383	484.369	-257.171	785.235	65.553	-179.363	986.493	86.782	-273.375	949.695	904.000	-176.673	949.151	904.369	-76.548	950.240	903.631	-276.798	793.972	936.288	-159.124	795.750	934.516	-213.483	871.882	450.473	-93.584	1051.654	492.956	-309.796	856.786	454.905	-191.027	1031.975	463.728	-211.544	774.475	64.810	-142.405	988.452	88.083	-311.803	804.437	79.663	-207.450	1006.891	98.429	-248.412	844.541	1346.138	-163.518	944.356	1271.330	-117.729	937.070	1269.751	-225.030	925.514	1281.672	-175.800	974.529	1113.353	-175.504	1015.657	616.188	-128.893	1093.405	683.161	-220.143	945.234	668.681	-81.592	1019.229	700.177	-286.774	930.715	584.469	-86.309	1053.022	619.269	-283.766	791.372	177.573	-62.585	965.826	213.044	-369.955	797.485	187.478	-103.228	979.503	215.285	-328.946	896.093	39.044	-142.602	1106.909	57.668	-292.226
	40	0.56667	898.947	845.266	-180.969	897.719	825.623	-117.854	888.658	823.893	-234.963	867.742	455.168	-147.896	1045.362	483.878	-255.962	785.555	65.731	-179.518	1003.757	84.362	-272.709	954.515	903.685	-176.342	953.769	904.181	-76.278	955.261	903.189	-276.407	798.916	935.762	-159.085	800.631	933.860	-213.495	873.572	450.279	-93.425	1056.898	492.442	-308.534	859.801	454.813	-191.038	1036.575	463.099	-210.477	774.628	65.040	-142.608	1005.734	85.767	-311.133	804.783	79.819	-207.566	1023.559	96.649	-247.689	849.824	1345.717	-163.589	946.411	1269.510	-118.023	942.075	1269.157	-225.245	930.494	1281.047	-175.939	975.825	1111.705	-176.527	1018.948	615.064	-128.305	1098.105	682.512	-218.795	948.553	668.231	-81.215	1024.197	699.571	-285.673	933.777	584.130	-86.005	1057.945	618.665	-282.566	791.659	177.793	-62.671	979.280	210.070	-369.367	797.891	187.779	-103.257	992.754	212.740	-328.335	896.205	39.043	-142.560	1124.923	58.291	-290.999
	41	0.57500	903.847	844.568	-180.895	902.550	825.256	-117.527	893.743	823.317	-234.652	869.678	455.041	-147.714	1050.254	483.243	-254.866	785.888	65.918	-179.690	1020.767	82.205	-271.962	959.331	903.324	-176.023	958.371	903.983	-76.016	960.292	902.665	-276.029	803.865	935.159	-159.099	805.506	933.098	-213.550	875.339	450.095	-93.230	1062.041	491.789	-307.385	862.456	454.798	-190.825	1041.155	462.187	-209.618	774.793	65.278	-142.828	1022.733	83.698	-310.383	805.273	80.005	-207.641	1039.985	95.144	-246.838	855.147	1345.240	-163.675	951.924	1268.926	-117.966	947.198	1268.444	-225.408	935.537	1280.327	-176.096	980.971	1111.019	-176.496	1022.290	613.963	-127.703	1102.842	681.692	-217.530	951.998	667.746	-80.753	1029.200	698.787	-284.591	936.803	583.743	-85.583	1062.895	617.779	-281.469	791.971	178.019	-62.756	992.513	207.260	-368.710	798.309	188.114	-103.325	1005.871	210.288	-327.701	896.319	39.039	-142.517	1142.596	59.135	-289.783
	42	0.58333	908.728	843.772	-180.833	907.419	824.849	-117.183	898.860	822.658	-234.322	871.698	454.923	-147.500	1055.069	482.481	-253.885	786.227	66.111	-179.879	1037.490	80.309	-271.136	964.157	902.920	-175.716	962.988	903.775	-75.757	965.327	902.064	-275.675	808.805	934.475	-159.165	810.375	932.235	-213.652	877.196	449.926	-93.004	1067.091	491.019	-306.353	865.018	454.722	-190.440	1045.815	461.118	-208.713	774.966	65.521	-143.067	1039.417	81.873	-309.555	805.680	80.167	-207.765	1056.144	93.865	-245.918	860.557	1344.600	-163.747	957.526	1268.264	-117.966	952.613	1267.638	-225.407	940.719	1279.541	-176.246	986.474	1110.279	-176.340	1025.684	612.876	-127.091	1107.615	680.720	-216.350	955.635	667.173	-80.292	1034.156	697.777	-283.576	939.939	583.267	-85.111	1067.806	616.728	-280.426	792.319	178.248	-62.841	1005.505	204.613	-367.982	798.818	188.362	-103.410	1018.811	207.934	-326.975	896.430	39.034	-142.475	1159.903	60.157	-288.570
	43	0.59167	913.774	843.084	-180.777	912.362	824.402	-116.815	904.023	821.921	-233.964	873.814	454.809	-147.266	1059.816	481.615	-253.021	786.561	66.303	-180.084	1053.900	78.670	-270.230	969.018	902.476	-175.423	967.663	903.558	-75.495	970.373	901.394	-275.352	813.729	933.704	-159.280	815.245	931.279	-213.797	879.155	449.761	-92.759	1072.053	490.153	-305.438	867.680	454.771	-190.219	1050.462	459.944	-208.023	775.142	65.762	-143.320	1055.760	80.284	-308.651	805.938	80.318	-207.972	1071.968	92.819	-244.981	866.015	1343.802	-163.768	962.899	1267.417	-118.126	958.237	1266.778	-225.328	946.057	1278.715	-176.374	991.957	1109.420	-176.286	1029.129	611.791	-126.472	1112.419	679.618	-215.250	959.316	666.660	-79.831	1039.036	696.635	-282.622	943.115	582.850	-84.692	1072.590	615.689	-279.531	792.711	178.479	-62.929	1018.231	202.128	-367.181	799.429	188.530	-103.500	1031.479	205.732	-326.154	896.530	39.029	-142.437	1176.820	61.323	-287.346
	44	0.60000	918.854	842.361	-180.727	917.410	823.913	-116.421	909.247	821.113	-233.575	876.041	454.680	-147.034	1064.500	480.666	-252.267	786.884	66.492	-180.300	1069.975	77.281	-269.243	973.936	901.994	-175.146	972.435	903.324	-75.228	975.438	900.663	-275.064	818.633	932.852	-159.436	820.126	930.244	-213.980	881.229	449.579	-92.517	1076.938	489.213	-304.636	870.284	454.968	-190.093	1054.470	458.773	-207.729	775.317	66.002	-143.582	1071.741	78.922	-307.667	806.247	80.508	-208.174	1087.554	92.093	-244.037	871.522	1342.968	-163.805	968.080	1266.478	-118.375	963.968	1265.867	-225.333	951.571	1277.867	-176.471	997.289	1108.467	-176.290	1032.621	610.696	-125.857	1117.249	678.415	-214.225	963.065	666.222	-79.356	1044.073	695.726	-281.680	946.284	582.447	-84.301	1077.313	614.616	-278.770	793.158	178.706	-63.023	1030.670	199.805	-366.304	800.072	188.709	-103.590	1043.746	203.743	-325.285	896.613	39.027	-142.409	1193.323	62.605	-286.097
	45	0.60833	923.891	841.519	-180.659	922.573	823.378	-116.012	914.537	820.244	-233.167	878.388	454.512	-146.816	1069.129	479.657	-251.613	787.191	66.675	-180.522	1085.691	76.133	-268.169	978.929	901.468	-174.887	977.323	903.059	-74.960	980.536	899.877	-274.813	823.524	931.929	-159.626	825.033	929.147	-214.195	883.428	449.355	-92.291	1081.756	488.222	-303.934	872.948	455.050	-189.848	1058.354	457.612	-207.553	775.489	66.239	-143.846	1087.333	77.777	-306.599	806.636	80.733	-208.359	1103.190	91.550	-243.181	877.097	1342.136	-163.892	973.606	1265.609	-118.582	969.554	1264.978	-225.438	957.129	1276.969	-176.583	1002.787	1107.575	-176.396	1036.164	609.581	-125.260	1122.096	677.142	-213.266	966.879	665.721	-78.917	1049.188	694.927	-280.719	949.530	582.009	-83.888	1082.079	613.514	-278.036	793.670	178.926	-63.123	1042.795	197.638	-365.350	800.733	188.948	-103.641	1055.743	202.022	-324.328	896.676	39.025	-142.391	1209.389	63.993	-284.807
